<?xml version="1.0" encoding="UTF-8"?>
<svg id="Layer_2" xmlns="http://www.w3.org/2000/svg" width="65.19mm" height="36.7mm" viewBox="0 0 184.8 104.02">
  <defs>
    <style>
      .cls-1 {
        fill: none;
      }

      .cls-1, .cls-2, .cls-3, .cls-4, .cls-5, .cls-6, .cls-7 {
        stroke: #231f20;
        stroke-miterlimit: 10;
      }

      .cls-8 {
        fill: #231f20;
      }

      .cls-2 {
        fill: #e4ad4b;
      }

      .cls-3 {
        fill: #d88b46;
      }

      .cls-4 {
        fill: #c14833;
      }

      .cls-5 {
        fill: #efb030;
      }

      .cls-6 {
        fill: #d3ccc1;
      }

      .cls-7 {
        fill: #3ab35c;
      }
    </style>
  </defs>
  <g id="Layer_2-2" data-name="Layer_2">
    <g>
      <path class="cls-6" d="M184.3,8.17v7.1H.5v-7.1C.5,3.93,3.93.5,8.17.5h168.46c4.24,0,7.67,3.43,7.67,7.67Z"/>
      <path class="cls-1" d="M184.3,15.27v67.64c0,4.24-3.43,7.67-7.67,7.67H8.17c-4.24,0-7.67-3.43-7.67-7.67V15.27h183.8Z"/>
      <rect class="cls-5" x="25.88" y="55.81" width="59.83" height="23.99" rx="2.76" ry="2.76"/>
      <rect class="cls-6" x="107.61" y="55.06" width="59.83" height="23.99" rx="2.76" ry="2.76"/>
      <path class="cls-3" d="M70.73,103.4c1.9-.53,3.8-1.06,5.71-1.59-.59-3.09-1.18-6.17-1.78-9.26,1.25-.19,2.49-.37,3.74-.56-3.8-6.14-7.61-12.29-11.41-18.43-1.15,6.86-2.31,13.72-3.46,20.58,1.62-.31,3.24-.62,4.86-.94.78,3.4,1.56,6.8,2.34,10.2Z"/>
      <g>
        <circle class="cls-4" cx="10.06" cy="8.33" r="3.23"/>
        <circle class="cls-2" cx="21.23" cy="8.33" r="3.23"/>
        <circle class="cls-7" cx="32.57" cy="8.33" r="3.23"/>
      </g>
      <g>
        <path class="cls-8" d="M19.22,32.74h1.73l1.56,4.76.54,1.8h.07l.53-1.8,1.58-4.76h1.73v11.15h-1.36v-5.58c0-1.09.17-2.99.24-3.94h-.05l-.63,2.18-1.6,4.39h-1.02l-1.56-4.39-.65-2.18h-.03c.1.95.24,2.86.24,3.94v5.58h-1.33v-11.15Z"/>
        <path class="cls-8" d="M29.81,42.69h2.77v-8.74h-2.77v-1.21h6.97v1.21h-2.77v8.74h2.77v1.21h-6.97v-1.21Z"/>
        <path class="cls-8" d="M39.79,32.74h1.56l3.57,7,1.07,2.31h.03c-.05-1.1-.19-2.36-.19-3.54v-5.78h1.36v11.15h-1.56l-3.57-7-1.07-2.31h-.03c.05,1.14.19,2.33.19,3.48v5.83h-1.36v-11.15Z"/>
        <path class="cls-8" d="M50.53,32.74h6.9v1.21h-5.47v3.48h4.62v1.21h-4.62v4.04h5.64v1.21h-7.07v-11.15Z"/>
        <path class="cls-8" d="M70.22,32.74h1.73l1.56,4.76.54,1.8h.07l.53-1.8,1.58-4.76h1.73v11.15h-1.36v-5.58c0-1.09.17-2.99.24-3.94h-.05l-.63,2.18-1.6,4.39h-1.02l-1.56-4.39-.65-2.18h-.03c.1.95.24,2.86.24,3.94v5.58h-1.33v-11.15Z"/>
        <path class="cls-8" d="M80.54,39.68v-6.93h1.45v6.97c0,2.29,1,3.13,2.33,3.13s2.36-.83,2.36-3.13v-6.97h1.38v6.93c0,3.2-1.56,4.42-3.74,4.42s-3.77-1.22-3.77-4.42Z"/>
        <path class="cls-8" d="M91.67,32.74h1.41v9.94h5.51v1.21h-6.92v-11.15Z"/>
        <path class="cls-8" d="M101.21,42.69h2.77v-8.74h-2.77v-1.21h6.97v1.21h-2.77v8.74h2.77v1.21h-6.97v-1.21Z"/>
        <path class="cls-8" d="M110.7,38.32c0-3.6,2.06-5.78,4.95-5.78,1.48,0,2.45.7,3.08,1.36l-.82.9c-.53-.56-1.19-1-2.26-1-2.09,0-3.45,1.72-3.45,4.49s1.24,4.56,3.42,4.56c.78,0,1.51-.24,1.92-.65v-2.91h-2.21v-1.17h3.54v4.69c-.7.71-1.89,1.29-3.33,1.29-2.8,0-4.83-2.14-4.83-5.78Z"/>
        <path class="cls-8" d="M121.34,32.74h1.45v4.66h4.62v-4.66h1.45v11.15h-1.45v-5.24h-4.62v5.24h-1.45v-11.15Z"/>
        <path class="cls-8" d="M132.13,32.74h6.9v1.21h-5.47v3.48h4.62v1.21h-4.62v4.04h5.64v1.21h-7.07v-11.15Z"/>
        <path class="cls-8" d="M141.87,32.74h2.75c3.35,0,5.17,1.99,5.17,5.52s-1.82,5.63-5.1,5.63h-2.82v-11.15ZM144.53,42.72c2.53,0,3.79-1.63,3.79-4.45s-1.26-4.35-3.79-4.35h-1.22v8.8h1.22Z"/>
        <path class="cls-8" d="M152.53,32.74h6.9v1.21h-5.47v3.48h4.62v1.21h-4.62v4.04h5.64v1.21h-7.07v-11.15Z"/>
        <path class="cls-8" d="M162.48,32.74h3.48c2.26,0,3.91.82,3.91,3.14s-1.65,3.3-3.91,3.3h-2.04v4.71h-1.45v-11.15ZM165.76,38.03c1.73,0,2.69-.71,2.69-2.14s-.95-1.99-2.69-1.99h-1.84v4.13h1.84ZM166.79,38.05l3.4,5.85h-1.62l-2.91-5.1,1.12-.75Z"/>
      </g>
      <g>
        <path class="cls-8" d="M29.28,66.38c0-2.12,1.04-3.37,2.52-3.37s2.52,1.25,2.52,3.37-1.04,3.43-2.52,3.43-2.52-1.28-2.52-3.43ZM33.44,66.38c0-1.65-.66-2.63-1.65-2.63s-1.65.98-1.65,2.63.66,2.69,1.65,2.69,1.65-1.01,1.65-2.69Z"/>
        <path class="cls-8" d="M35.79,63.13h2.05c1.33,0,2.3.48,2.3,1.85s-.97,1.94-2.3,1.94h-1.2v2.77h-.85v-6.56ZM37.72,66.24c1.02,0,1.58-.42,1.58-1.26s-.56-1.17-1.58-1.17h-1.08v2.43h1.08ZM38.33,66.25l2,3.44h-.95l-1.71-3,.66-.44Z"/>
        <path class="cls-8" d="M41.33,66.41c0-2.12,1.21-3.4,2.91-3.4.87,0,1.44.41,1.81.8l-.48.53c-.31-.33-.7-.59-1.33-.59-1.23,0-2.03,1.01-2.03,2.64s.73,2.68,2.01,2.68c.46,0,.89-.14,1.13-.38v-1.71h-1.3v-.69h2.08v2.76c-.41.42-1.11.76-1.96.76-1.65,0-2.84-1.26-2.84-3.4Z"/>
        <path class="cls-8" d="M49.32,63.13h.96l2.21,6.56h-.9l-1.13-3.66c-.23-.73-.45-1.45-.65-2.21h-.04c-.21.76-.42,1.48-.65,2.21l-1.15,3.66h-.86l2.21-6.56ZM48.28,67.02h3.01v.68h-3.01v-.68Z"/>
        <path class="cls-8" d="M53.62,63.13h.92l2.1,4.12.63,1.36h.02c-.03-.65-.11-1.39-.11-2.08v-3.4h.8v6.56h-.92l-2.1-4.12-.63-1.36h-.02c.03.67.11,1.37.11,2.05v3.43h-.8v-6.56Z"/>
        <path class="cls-8" d="M59.75,68.98h1.63v-5.14h-1.63v-.71h4.1v.71h-1.63v5.14h1.63v.71h-4.1v-.71Z"/>
        <path class="cls-8" d="M65.47,68.84l.5-.58c.5.49,1.18.81,1.92.81.9,0,1.42-.43,1.42-1.03,0-.7-.51-.9-1.17-1.18l-.95-.42c-.65-.26-1.41-.72-1.41-1.69s.9-1.74,2.15-1.74c.82,0,1.54.33,2.02.81l-.44.54c-.43-.38-.93-.61-1.61-.61-.76,0-1.27.36-1.27.95,0,.63.61.86,1.17,1.08l.92.41c.81.32,1.45.78,1.45,1.75,0,1.04-.88,1.87-2.32,1.87-.96,0-1.79-.38-2.38-.97Z"/>
        <path class="cls-8" d="M71.94,63.13h4.06v.71h-3.22v2.05h2.72v.71h-2.72v2.38h3.32v.71h-4.16v-6.56Z"/>
        <path class="cls-8" d="M77.79,63.13h2.05c1.33,0,2.3.48,2.3,1.85s-.97,1.94-2.3,1.94h-1.2v2.77h-.85v-6.56ZM79.71,66.24c1.02,0,1.58-.42,1.58-1.26s-.56-1.17-1.58-1.17h-1.08v2.43h1.08ZM80.32,66.25l2,3.44h-.95l-1.71-3,.66-.44Z"/>
      </g>
      <g>
        <path class="cls-8" d="M126.49,62.38h.85v3.28h.03l2.75-3.28h.96l-3.74,4.47v2.09h-.85v-6.56ZM128.35,65.28l.51-.66,2.46,4.32h-.95l-2.02-3.66Z"/>
        <path class="cls-8" d="M134.04,62.38h.96l2.21,6.56h-.9l-1.13-3.66c-.23-.73-.45-1.45-.65-2.21h-.04c-.21.76-.42,1.48-.65,2.21l-1.15,3.66h-.86l2.21-6.56ZM133,66.27h3.01v.68h-3.01v-.68Z"/>
        <path class="cls-8" d="M138,65.63c0-2.12,1.04-3.37,2.52-3.37s2.52,1.25,2.52,3.37-1.04,3.43-2.52,3.43-2.52-1.28-2.52-3.43ZM142.17,65.63c0-1.65-.66-2.63-1.65-2.63s-1.65.98-1.65,2.63.66,2.69,1.65,2.69,1.65-1.01,1.65-2.69Z"/>
        <path class="cls-8" d="M144.2,68.09l.5-.58c.5.49,1.18.81,1.92.81.9,0,1.42-.43,1.42-1.03,0-.7-.51-.9-1.17-1.18l-.95-.42c-.65-.26-1.41-.72-1.41-1.69s.9-1.74,2.15-1.74c.82,0,1.54.33,2.02.81l-.44.54c-.43-.38-.93-.61-1.61-.61-.76,0-1.27.36-1.27.95,0,.63.61.86,1.17,1.08l.92.41c.81.32,1.45.78,1.45,1.75,0,1.04-.88,1.87-2.32,1.87-.96,0-1.79-.38-2.38-.97Z"/>
      </g>
    </g>
  </g>
</svg>