<?xml version="1.0" encoding="UTF-8"?>
<svg id="Layer_2" xmlns="http://www.w3.org/2000/svg" width="59.85mm" height="53.38mm" viewBox="0 0 169.66 151.32">
  <defs>
    <style>
      .cls-1, .cls-2 {
        fill: none;
      }

      .cls-1, .cls-2, .cls-3 {
        stroke: #231f20;
        stroke-miterlimit: 10;
      }

      .cls-4 {
        fill: #231f20;
      }

      .cls-2, .cls-3 {
        stroke-linecap: round;
      }

      .cls-3 {
        fill: #f4f3e0;
        stroke-width: .5px;
      }
    </style>
  </defs>
  <g id="Layer_2-2" data-name="Layer_2">
    <g>
      <g>
        <rect class="cls-1" x="3.84" y="2.48" width="162.06" height="111.42"/>
        <rect class="cls-4" x="64.33" y="111.93" width="38.86" height="9.66"/>
        <path class="cls-1" d="M64.95,120.47l37.59-.33,3.69,10.6c.28.8-.32,1.64-1.16,1.64h-42.85c-.86,0-1.45-.86-1.15-1.66l3.88-10.24Z"/>
        <line class="cls-2" x1="61.32" y1="130.44" x2="96.99" y2="130.44"/>
        <line class="cls-2" x1="99.19" y1="130.44" x2="103.19" y2="130.44"/>
        <rect class="cls-3" x=".25" y="100.38" width="17.14" height="16.37"/>
        <rect class="cls-3" x="65.58" y="36.53" width="17.14" height="16.37"/>
        <rect class="cls-3" x="132.4" y="79.24" width="17.14" height="16.37"/>
        <rect class="cls-3" x="116.93" y="85.23" width="17.14" height="16.37"/>
        <rect class="cls-3" x="109.56" y="36.48" width="17.14" height="16.37"/>
        <rect class="cls-3" x="95.94" y="56.12" width="17.14" height="16.37"/>
        <rect class="cls-3" x="72.56" y="79.36" width="17.14" height="16.37"/>
        <rect class="cls-3" x="33.45" y="50" width="17.14" height="16.37"/>
        <rect class="cls-3" x="15.05" y="24.42" width="17.14" height="16.37"/>
        <rect class="cls-3" x="52.42" y="1.16" width="17.14" height="16.37"/>
        <rect class="cls-3" x="123.83" y="1.16" width="17.14" height="16.37"/>
        <rect class="cls-3" x="132.4" y="25.9" width="17.14" height="16.37"/>
        <rect class="cls-3" x="152.27" y="19.51" width="17.14" height="16.37"/>
        <rect class="cls-3" x="152.27" y="34.09" width="17.14" height="16.37"/>
        <rect class="cls-3" x="151.53" y="61.36" width="17.14" height="16.37"/>
        <rect class="cls-3" x="146.4" y="28.34" width="17.14" height="16.37"/>
        <rect class="cls-3" x="103.65" y="79.24" width="17.14" height="16.37"/>
        <rect class="cls-3" x="104.51" y="71.38" width="17.14" height="16.37"/>
        <rect class="cls-3" x="102.05" y="92.2" width="17.14" height="16.37"/>
        <rect class="cls-3" x="40.85" y="79.24" width="17.14" height="16.37"/>
        <rect class="cls-3" x="37.72" y="102.38" width="17.14" height="16.37"/>
        <rect class="cls-3" x="109.56" y="100.38" width="17.14" height="16.37"/>
        <rect class="cls-3" x="52.75" y="100.38" width="17.14" height="16.37"/>
        <rect class="cls-3" x="88.13" y="15.39" width="17.14" height="16.37"/>
        <rect class="cls-3" x="75.19" y="17.71" width="17.14" height="16.37"/>
        <rect class="cls-3" x=".84" y="58.19" width="17.14" height="16.37"/>
        <rect class="cls-3" x="2.15" y="1.16" width="17.14" height="16.37"/>
        <rect class="cls-3" x="37.72" y="20.16" width="17.14" height="16.37"/>
        <rect class="cls-3" x="75.08" y="11.32" width="17.14" height="16.37"/>
        <rect class="cls-3" x="95.08" y="42.27" width="17.14" height="16.37"/>
        <rect class="cls-3" x="112.22" y="21.72" width="17.14" height="16.37"/>
        <rect class="cls-3" x="110.42" y=".25" width="17.14" height="16.37"/>
        <rect class="cls-3" x="97.73" y="28.34" width="17.14" height="16.37"/>
        <rect class="cls-3" x="81.13" y="69.55" width="17.14" height="16.37"/>
        <rect class="cls-3" x="52.42" y="66.38" width="17.14" height="16.37"/>
        <rect class="cls-3" x="12.41" y="69.55" width="17.14" height="16.37"/>
        <rect class="cls-3" x="13.6" y="89.55" width="17.14" height="16.37"/>
        <rect class="cls-3" x="57.02" y="93.26" width="17.14" height="16.37"/>
        <rect class="cls-3" x="83.29" y="97.2" width="17.14" height="16.37"/>
        <rect class="cls-3" x="123.83" y="93.26" width="17.14" height="16.37"/>
        <rect class="cls-3" x="150.55" y="101.44" width="17.14" height="16.37"/>
        <rect class="cls-3" x="129.35" y="66.38" width="17.14" height="16.37"/>
        <rect class="cls-3" x="83.65" y="56.86" width="17.14" height="16.37"/>
        <rect class="cls-3" x="48.45" y="32.61" width="17.14" height="16.37"/>
        <rect class="cls-3" x=".25" y="31.76" width="17.14" height="16.37"/>
        <rect class="cls-3" x="126.7" y="102.5" width="18.85" height="18.85"/>
        <rect class="cls-3" x="145.55" y="74.56" width="18.85" height="18.85"/>
        <rect class="cls-3" x="147.35" y="82.77" width="18.85" height="18.85"/>
        <rect class="cls-3" x="140.11" y="38.09" width="18.85" height="18.85"/>
        <rect class="cls-3" x="149.53" y="1.89" width="18.85" height="18.85"/>
        <rect class="cls-3" x="100.14" y="10.08" width="18.85" height="18.85"/>
        <rect class="cls-3" x="80.27" y="1.89" width="18.85" height="18.85"/>
        <rect class="cls-3" x="33.45" y="1.89" width="18.85" height="18.85"/>
        <rect class="cls-3" x="20.12" y="12.29" width="18.85" height="18.85"/>
        <rect class="cls-3" x="45.44" y="43.48" width="18.85" height="18.85"/>
        <rect class="cls-3" x="56.43" y="56.95" width="18.85" height="18.85"/>
        <rect class="cls-3" x="28.3" y="73.33" width="18.85" height="18.85"/>
        <rect class="cls-3" x="18.87" y="55.62" width="18.85" height="18.85"/>
        <rect class="cls-3" x="9.86" y="45.02" width="18.85" height="18.85"/>
        <rect class="cls-3" x="24.02" y="28.67" width="18.85" height="18.85"/>
        <rect class="cls-3" x="20.12" y="90.96" width="18.85" height="18.85"/>
        <rect class="cls-3" x="2.98" y="74.56" width="18.85" height="18.85"/>
        <rect class="cls-3" x="94.23" y="66.99" width="18.85" height="18.85"/>
        <rect class="cls-3" x="91.77" y="96.5" width="18.85" height="18.85"/>
        <rect class="cls-3" x="85.27" y="81.53" width="18.85" height="18.85"/>
        <rect class="cls-3" x="67.86" y="94.5" width="18.85" height="18.85"/>
        <rect class="cls-3" x="47.64" y="87.85" width="18.85" height="18.85"/>
        <rect class="cls-3" x="117.18" y="55.15" width="18.85" height="18.85"/>
        <rect class="cls-3" x="79.27" y="30.52" width="18.85" height="18.85"/>
        <rect class="cls-3" x="58.14" y="14.99" width="18.85" height="18.85"/>
        <rect class="cls-3" x="126.61" y="46.2" width="18.85" height="18.85"/>
        <rect class="cls-3" x="126.61" y="15.39" width="18.85" height="18.85"/>
        <rect class="cls-3" x="117.27" y="72.55" width="18.85" height="18.85"/>
        <rect class="cls-3" x="109.56" y="49.28" width="18.85" height="18.85"/>
        <rect class="cls-3" x="137.92" y="87.43" width="18.85" height="18.85"/>
        <rect class="cls-3" x="69.73" y="61.13" width="18.85" height="18.85"/>
        <rect class="cls-3" x="133.42" y="12.29" width="18.85" height="18.85"/>
        <rect class="cls-3" x="111.36" y="5.96" width="18.85" height="18.85"/>
        <rect class="cls-3" x="142.85" y="96.5" width="18.85" height="18.85"/>
        <rect class="cls-3" x="150.71" y="48.7" width="16.48" height="16.48"/>
        <rect class="cls-3" x="134.6" y="59.85" width="16.48" height="16.48"/>
        <rect class="cls-3" x="126.36" y="36.78" width="16.48" height="16.48"/>
        <rect class="cls-3" x="150.88" y="71" width="16.48" height="16.48"/>
        <rect class="cls-3" x="141.29" y="53.12" width="16.48" height="16.48"/>
        <rect class="cls-3" x="108.94" y="60.7" width="16.48" height="16.48"/>
        <rect class="cls-3" x="81.45" y="46.9" width="16.48" height="16.48"/>
        <rect class="cls-3" x="59.32" y="44.66" width="16.48" height="16.48"/>
        <rect class="cls-3" x="25.2" y="44.66" width="16.48" height="16.48"/>
        <rect class="cls-3" x="1.61" y="15.51" width="16.48" height="16.48"/>
        <rect class="cls-3" x="18.1" y="2.11" width="16.48" height="16.48"/>
        <rect class="cls-3" x="90.88" y="7.14" width="16.48" height="16.48"/>
        <rect class="cls-3" x="102.37" y="2.11" width="16.48" height="16.48"/>
        <rect class="cls-3" x="66.84" y="1.84" width="16.48" height="16.48"/>
        <rect class="cls-3" x="46.62" y="14.74" width="16.48" height="16.48"/>
        <rect class="cls-3" x="38.38" y="29.85" width="16.48" height="16.48"/>
        <rect class="cls-3" x="137.22" y="1.84" width="16.48" height="16.48"/>
        <rect class="cls-3" x="121.97" y="24.81" width="16.48" height="16.48"/>
        <rect class="cls-3" x="94.95" y="1.11" width="16.48" height="16.48"/>
        <rect class="cls-3" x="69.04" y="45.95" width="16.48" height="16.48"/>
        <rect class="cls-3" x="63.44" y="29.85" width="16.48" height="16.48"/>
        <rect class="cls-3" x="44.05" y="56.12" width="18.5" height="18.5"/>
        <rect class="cls-3" x="33.77" y="42.22" width="16.48" height="16.48"/>
        <rect class="cls-3" x="9.14" y="39.27" width="16.48" height="16.48"/>
        <rect class="cls-3" x="6.81" y="15.51" width="16.48" height="16.48"/>
        <rect class="cls-3" x="2.47" y="47.62" width="16.48" height="16.48"/>
        <rect class="cls-3" x=".9" y="85.17" width="16.48" height="16.48"/>
        <rect class="cls-3" x="13.92" y="103.68" width="16.48" height="16.48"/>
        <rect class="cls-3" x="37.19" y="87.25" width="16.48" height="16.48"/>
        <rect class="cls-3" x="16.96" y="81.31" width="16.48" height="16.48"/>
        <rect class="cls-3" x="56.04" y="77.91" width="16.48" height="16.48"/>
        <rect class="cls-3" x="62.35" y="83.5" width="16.48" height="16.48"/>
        <rect class="cls-3" x="35.81" y="64.31" width="16.48" height="16.48"/>
        <rect class="cls-3" x="30.1" y="99.81" width="16.48" height="16.48"/>
      </g>
      <g>
        <path class="cls-2" d="M122.3,150.82H47.43c-.58,0-1.02-.54-.9-1.11l1.87-8.8c.09-.42.47-.73.9-.73l71.4.07c.44,0,.82.32.9.75l1.6,8.73c.1.56-.33,1.08-.9,1.08Z"/>
        <polyline class="cls-2" points="46.84 148.28 51.61 148.28 57.59 148.28 64.02 148.28 109.44 148.28 117.79 148.28 122.93 148.28"/>
        <polyline class="cls-2" points="47.42 145.51 51.61 145.51 52.13 145.51 57.59 145.51 58.11 145.51 64.02 145.51 64.54 145.51 70.92 145.51 78.25 145.51 92.37 145.51 100.14 145.51 108.5 145.51 109.44 145.51 116.85 145.51 117.79 145.51 122.42 145.51"/>
        <polyline class="cls-2" points="47.84 143.54 52.13 143.54 52.8 143.54 58.11 143.54 58.78 143.54 64.54 143.54 65.21 143.54 70.92 143.54 71.59 143.54 78.25 143.54 78.92 143.54 85.33 143.54 92.37 143.54 99.47 143.54 100.14 143.54 107.48 143.54 108.5 143.54 115.83 143.54 116.85 143.54 122.06 143.54"/>
        <line class="cls-2" x1="52.8" y1="143.54" x2="52.8" y2="140.19"/>
        <line class="cls-2" x1="52.13" y1="145.51" x2="52.13" y2="143.54"/>
        <line class="cls-2" x1="51.61" y1="148.28" x2="51.61" y2="145.51"/>
        <line class="cls-2" x1="58.78" y1="143.54" x2="58.78" y2="140.2"/>
        <line class="cls-2" x1="58.11" y1="145.51" x2="58.11" y2="143.54"/>
        <line class="cls-2" x1="57.59" y1="148.28" x2="57.59" y2="145.51"/>
        <line class="cls-2" x1="65.21" y1="143.54" x2="65.21" y2="140.21"/>
        <line class="cls-2" x1="64.54" y1="145.51" x2="64.54" y2="143.54"/>
        <line class="cls-2" x1="78.92" y1="143.54" x2="78.92" y2="140.22"/>
        <line class="cls-2" x1="92.37" y1="140.39" x2="92.37" y2="145.51"/>
        <line class="cls-2" x1="85.33" y1="140.19" x2="85.33" y2="145.3"/>
        <line class="cls-2" x1="78.25" y1="145.51" x2="78.25" y2="143.54"/>
        <line class="cls-2" x1="71.59" y1="143.54" x2="71.59" y2="140.21"/>
        <line class="cls-2" x1="70.92" y1="145.51" x2="70.92" y2="143.54"/>
        <line class="cls-2" x1="99.47" y1="143.54" x2="99.47" y2="140.24"/>
        <line class="cls-2" x1="100.14" y1="145.51" x2="100.14" y2="143.54"/>
        <line class="cls-2" x1="64.02" y1="148.28" x2="64.02" y2="145.51"/>
        <line class="cls-2" x1="107.48" y1="143.54" x2="107.48" y2="140.25"/>
        <line class="cls-2" x1="108.5" y1="145.51" x2="108.5" y2="143.54"/>
        <line class="cls-2" x1="109.44" y1="148.28" x2="109.44" y2="145.51"/>
        <line class="cls-2" x1="115.83" y1="143.54" x2="115.83" y2="140.26"/>
        <line class="cls-2" x1="116.85" y1="145.51" x2="116.85" y2="143.54"/>
        <line class="cls-2" x1="117.79" y1="148.28" x2="117.79" y2="145.51"/>
      </g>
      <g>
        <path class="cls-2" d="M128.76,134.06c-.49,1.15-.03,2.37.35,3.33,1.58,4.1,6.33,5.38,7.78,5.77.7.19,4.63,1.19,7.99-.49,1.42-.71,1.89-1.47,2.08-1.88.63-1.3.22-2.63.07-3.13-.81-2.68-3.47-4.04-4.59-4.59-4.98-2.46-12.35-2.14-13.69.97Z"/>
        <path class="cls-2" d="M128.55,134.95c.66-.03,1.43.05,2.22.35.43.17,1.39.54,2.15,1.46.6.72.6,1.19,1.18,2.37,0,0,.6,1.19,1.6,2.43.36.45.97,1.1,1.92,1.77"/>
      </g>
    </g>
  </g>
</svg>